<svg width="14" height="14" viewBox="0 0 14 14" fill="none" xmlns="http://www.w3.org/2000/svg">
<g clip-path="url(#clip0_304_1441)">
<path d="M6.92425 3.78802C8.96486 3.78802 10.7847 4.93485 11.6731 6.74932C10.7847 8.56379 8.97024 9.71062 6.92425 9.71062C4.87826 9.71062 3.06379 8.56379 2.1754 6.74932C3.06379 4.93485 4.88365 3.78802 6.92425 3.78802ZM6.92425 2.71118C4.3323 2.71118 2.1047 4.2634 1.11123 6.48845C1.03711 6.65445 1.03711 6.84419 1.11123 7.01019C2.1047 9.23524 4.3323 10.7875 6.92425 10.7875C9.5162 10.7875 11.7438 9.23524 12.7373 7.01019C12.8114 6.84419 12.8114 6.65445 12.7373 6.48845C11.7438 4.2634 9.5162 2.71118 6.92425 2.71118ZM6.92425 5.40327C7.66727 5.40327 8.2703 6.0063 8.2703 6.74932C8.2703 7.49234 7.66727 8.09537 6.92425 8.09537C6.18123 8.09537 5.57821 7.49234 5.57821 6.74932C5.57821 6.0063 6.18123 5.40327 6.92425 5.40327ZM6.92425 4.32644C5.58897 4.32644 4.50137 5.41404 4.50137 6.74932C4.50137 8.0846 5.58897 9.1722 6.92425 9.1722C8.25953 9.1722 9.34713 8.0846 9.34713 6.74932C9.34713 5.41404 8.25953 4.32644 6.92425 4.32644Z" fill="#86C9F6"/>
</g>
<defs>
<clipPath id="clip0_304_1441">
<rect width="12.922" height="12.922" fill="white" transform="translate(0.463257 0.28833)"/>
</clipPath>
</defs>
</svg>
